<?xml version="1.0" encoding="UTF-8" standalone="no"?>
<!-- Created with Inkscape (http://www.inkscape.org/) -->

<svg
   xmlns:dc="http://purl.org/dc/elements/1.1/"
   xmlns:cc="http://creativecommons.org/ns#"
   xmlns:rdf="http://www.w3.org/1999/02/22-rdf-syntax-ns#"
   xmlns:svg="http://www.w3.org/2000/svg"
   xmlns="http://www.w3.org/2000/svg"
   xmlns:sodipodi="http://sodipodi.sourceforge.net/DTD/sodipodi-0.dtd"
   xmlns:inkscape="http://www.inkscape.org/namespaces/inkscape"
   height="24"
   id="svg5171"
   version="1.0"
   width="24"
   inkscape:version="0.48.3.1 r9886"
   sodipodi:docname="gri.svg">
  <sodipodi:namedview
     pagecolor="#ffffff"
     bordercolor="#666666"
     borderopacity="1"
     objecttolerance="10"
     gridtolerance="10"
     guidetolerance="10"
     inkscape:pageopacity="0"
     inkscape:pageshadow="2"
     inkscape:window-width="1600"
     inkscape:window-height="845"
     id="namedview3373"
     showgrid="false"
     inkscape:zoom="16.898957"
     inkscape:cx="14.146364"
     inkscape:cy="12.150644"
     inkscape:window-x="-2"
     inkscape:window-y="-3"
     inkscape:window-maximized="1"
     inkscape:current-layer="svg5171" />
  <metadata
     id="metadata3349">
    <rdf:RDF>
      <cc:Work
         rdf:about="">
        <dc:title />
        <dc:description />
        <dc:subject>
          <rdf:Bag>
            <rdf:li />
          </rdf:Bag>
        </dc:subject>
        <dc:publisher>
          <cc:Agent
             rdf:about="http://commons.wikimedia.org/wiki/Main_Page">
            <dc:title>Source: Wikimedia Commons</dc:title>
          </cc:Agent>
        </dc:publisher>
        <dc:creator>
          <cc:Agent>
            <dc:title />
          </cc:Agent>
        </dc:creator>
        <dc:rights>
          <cc:Agent>
            <dc:title />
          </cc:Agent>
        </dc:rights>
        <dc:date />
        <dc:format>image/svg+xml</dc:format>
        <dc:type
           rdf:resource="http://purl.org/dc/dcmitype/StillImage" />
        <cc:license
           rdf:resource="http://en.wikipedia.org/wiki/GNU_General_Public_License" />
        <dc:language>en</dc:language>
      </cc:Work>
    </rdf:RDF>
  </metadata>
  <defs
     id="defs5173">
    <marker
       id="Dot_s"
       orient="auto"
       refX="0"
       refY="0"
       style="overflow:visible">
      <path
         d="m -2.5,-1 c 0,2.76 -2.24,5 -5,5 -2.76,0 -5,-2.24 -5,-5 0,-2.76 2.24,-5 5,-5 2.76,0 5,2.24 5,5 z"
         id="path3236"
         style="fill-rule:evenodd;stroke:#000000;stroke-width:1pt;marker-start:none;marker-end:none"
         transform="matrix(0.2,0,0,0.2,1.48,0.2)"
         inkscape:connector-curvature="0" />
    </marker>
  </defs>
  <rect
     y="0.95831943"
     x="1.5584109"
     width="20.883179"
     style="fill:#ffffff;fill-opacity:1;stroke:none"
     id="rect5231"
     height="8.4914589" />
  <path
     inkscape:connector-curvature="0"
     style="fill:none;stroke:#000000;stroke-width:0.60082442;stroke-linecap:butt;stroke-linejoin:miter;stroke-miterlimit:4;stroke-opacity:1;stroke-dasharray:none"
     id="path5189"
     d="m 0.77854112,0.98886466 22.47180188,0" />
  <path
     inkscape:connector-curvature="0"
     style="fill:none;stroke:#000000;stroke-width:0.60082442;stroke-linecap:butt;stroke-linejoin:miter;stroke-miterlimit:4;stroke-opacity:1;stroke-dasharray:none"
     id="path5191"
     d="m 0.77854112,22.981131 22.47180188,0" />
  <path
     inkscape:connector-curvature="0"
     style="fill:none;stroke:#000000;stroke-width:0.60082442;stroke-linecap:butt;stroke-linejoin:miter;stroke-miterlimit:4;stroke-opacity:1;stroke-dasharray:none"
     id="path5193"
     d="m 1.5872951,0.10306477 0,23.76386523" />
  <path
     inkscape:connector-curvature="0"
     style="fill:none;stroke:#000000;stroke-width:0.60082442;stroke-linecap:butt;stroke-linejoin:miter;stroke-miterlimit:4;stroke-opacity:1;stroke-dasharray:none"
     id="path5195"
     d="m 22.383822,0.10306477 0,23.76386523" />
  <path
     inkscape:connector-curvature="0"
     style="fill:none;stroke:#000000;stroke-width:0.60082442;stroke-linecap:butt;stroke-linejoin:miter;stroke-miterlimit:4;stroke-opacity:1;stroke-dasharray:none"
     id="path5197"
     d="m 17.184689,22.950586 0,0.916344 m 0,-23.76386523 0,0.94688883" />
  <path
     inkscape:connector-curvature="0"
     style="fill:none;stroke:#000000;stroke-width:0.60082442;stroke-linecap:butt;stroke-linejoin:miter;stroke-miterlimit:4;stroke-opacity:1;stroke-dasharray:none"
     id="path5199"
     d="m 11.985558,22.950586 0,0.916344 m 0,-23.76386523 0,0.94688883" />
  <path
     inkscape:connector-curvature="0"
     style="fill:none;stroke:#000000;stroke-width:0.60082442;stroke-linecap:butt;stroke-linejoin:miter;stroke-miterlimit:4;stroke-opacity:1;stroke-dasharray:none"
     id="path5201"
     d="m 6.7864266,22.950586 0,0.916344 m 0,-23.76386523 0,0.94688883" />
  <path
     inkscape:connector-curvature="0"
     style="fill:none;stroke:#000000;stroke-width:0.60082442;stroke-linecap:butt;stroke-linejoin:miter;stroke-miterlimit:4;stroke-opacity:1;stroke-dasharray:none"
     id="path5203"
     d="m 1.6161785,11.984999 -0.86652113,0 m 22.47180163,0 -0.895406,0" />
  <g
     style="fill:#ff0000;stroke:none"
     id="g5215"
     transform="matrix(0.14606562,0,0,0.15446397,-4.6643291,-57.021281)">
    <path
       inkscape:connector-curvature="0"
       style="fill:#ff0000;fill-opacity:1;fill-rule:evenodd;stroke:none"
       id="path5209"
       d="m 78.910713,378.24164 -2.28125,2.9375 -36,46.28125 4.34375,3.375 33.71875,-43.34375 33.062497,47 1.46875,2.09375 2.1875,-1.3125 34.625,-20.875 34.53125,13.75 2.03125,-5.125 -35.8125,-14.21875 -1.25,-0.5 -1.1875,0.6875 -33.59375,20.25 -33.718747,-47.9375 -2.125,-3.0625 z" />
    <path
       inkscape:connector-curvature="0"
       style="fill:#ff0000;fill-rule:evenodd;stroke:none;stroke-width:1.1pt;marker-start:none;marker-end:none"
       id="path5221"
       d="m 46.109246,424.89266 c 2.396473,1.86392 2.828687,5.32163 0.964764,7.71811 -1.863924,2.39647 -5.321638,2.82868 -7.718111,0.96476 -2.396473,-1.86392 -2.828687,-5.32164 -0.964764,-7.71811 1.863924,-2.39647 5.321638,-2.82869 7.718111,-0.96476 z" />
    <path
       inkscape:connector-curvature="0"
       style="fill:#ff0000;fill-rule:evenodd;stroke:none;stroke-width:1.1pt;marker-start:none;marker-end:none"
       id="path5223"
       d="m 84.178546,383.00359 c -0.07276,3.03513 -2.595098,5.43937 -5.630226,5.36662 -3.035128,-0.0728 -5.439371,-2.5951 -5.366615,-5.63023 0.07276,-3.03513 2.595098,-5.43937 5.630226,-5.36661 3.035128,0.0727 5.439372,2.5951 5.366615,5.63022 z" />
    <path
       inkscape:connector-curvature="0"
       style="fill:#ff0000;fill-rule:evenodd;stroke:none;stroke-width:1.1pt;marker-start:none;marker-end:none"
       id="path5225"
       d="m 119.26311,434.01658 c -0.62641,2.97067 -3.54579,4.87325 -6.51646,4.24684 -2.97068,-0.62642 -4.87326,-3.54579 -4.24685,-6.51647 0.62642,-2.97067 3.5458,-4.87326 6.51647,-4.24684 2.97067,0.62642 4.87326,3.54579 4.24684,6.51647 z" />
    <path
       inkscape:connector-curvature="0"
       style="fill:#ff0000;fill-rule:evenodd;stroke:none;stroke-width:1.1pt;marker-start:none;marker-end:none"
       id="path5227"
       d="m 155.15334,410.91003 c 0.24784,3.02587 -2.0068,5.68278 -5.03267,5.93061 -3.02587,0.24783 -5.68278,-2.00681 -5.93061,-5.03267 -0.24783,-3.02587 2.0068,-5.68279 5.03267,-5.93062 3.02587,-0.24783 5.68278,2.00681 5.93061,5.03268 z" />
    <path
       inkscape:connector-curvature="0"
       style="fill:#ff0000;fill-rule:evenodd;stroke:none;stroke-width:1.1pt;marker-start:none;marker-end:none"
       id="path5229"
       d="m 190.58187,427.58007 c -1.12217,2.821 -4.32242,4.19976 -7.14342,3.07759 -2.821,-1.12216 -4.19976,-4.32241 -3.07759,-7.14341 1.12216,-2.821 4.32241,-4.19977 7.14341,-3.0776 2.821,1.12217 4.19977,4.32242 3.0776,7.14342 z" />
  </g>
  <g
     id="g4346"
     transform="translate(-28.533033,15.148864)">
    <path
       inkscape:connector-curvature="0"
       style="fill:#0000ff;fill-opacity:1;fill-rule:evenodd;stroke:none"
       id="path5209-3"
       d="m 35.394698,6.6236147 -0.333212,-0.4537379 -5.258362,-7.14878566 0.634472,-0.52131594 4.92515,6.6950477 4.829294,-7.2598065 0.214534,-0.323409 0.319519,0.202734 5.057522,3.2244354 5.043828,-2.1238796 0.296696,0.79162781 -5.230975,2.19628459 -0.182582,0.077232 -0.173453,-0.106194 -4.906892,-3.1278954 -4.925149,7.4046166 -0.31039,0.4730459 z" />
    <path
       inkscape:connector-curvature="0"
       style="fill:#0000ff;fill-opacity:1;fill-rule:evenodd;stroke:none;stroke-width:1.1pt;marker-start:none;marker-end:none"
       id="path5221-7"
       d="m 30.603532,-0.58228709 c 0.350042,-0.28790848 0.413174,-0.82200011 0.140918,-1.19216991 -0.272255,-0.3701683 -0.777308,-0.4369291 -1.12735,-0.1490207 -0.350043,0.2879085 -0.413174,0.8220017 -0.140919,1.19216995 0.272255,0.37016827 0.777308,0.43693069 1.127351,0.14902066 z" />
    <path
       inkscape:connector-curvature="0"
       style="fill:#0000ff;fill-opacity:1;fill-rule:evenodd;stroke:none;stroke-width:1.1pt;marker-start:none;marker-end:none"
       id="path5223-6"
       d="M 36.164148,5.888065 C 36.15352,5.4192467 35.785093,5.0478783 35.341765,5.0591155 34.898437,5.0703605 34.54726,5.459965 34.557887,5.9287832 c 0.01063,0.4688182 0.379055,0.8401867 0.822383,0.8289479 0.443327,-0.011229 0.794505,-0.4008495 0.783878,-0.8696661 z" />
    <path
       inkscape:connector-curvature="0"
       style="fill:#0000ff;fill-opacity:1;fill-rule:evenodd;stroke:none;stroke-width:1.1pt;marker-start:none;marker-end:none"
       id="path5225-2"
       d="m 41.288796,-1.991604 c -0.0915,-0.4588615 -0.517918,-0.7527415 -0.951831,-0.6559838 -0.433914,0.096759 -0.711815,0.5476968 -0.620318,1.0065599 0.0915,0.4588614 0.517919,0.75274305 0.951832,0.65598373 0.433913,-0.0967593 0.711816,-0.54769683 0.620317,-1.00655983 z" />
    <path
       inkscape:connector-curvature="0"
       style="fill:#0000ff;fill-opacity:1;fill-rule:evenodd;stroke:none;stroke-width:1.1pt;marker-start:none;marker-end:none"
       id="path5227-2"
       d="m 46.531125,1.5775255 c 0.0362,-0.4673879 -0.293125,-0.87778481 -0.7351,-0.91606561 -0.441976,-0.0382808 -0.830059,0.30997984 -0.866258,0.77736621 -0.0362,0.4673879 0.293124,0.8777863 0.7351,0.9160671 0.441975,0.038281 0.830058,-0.3099799 0.866258,-0.7773677 z" />
    <path
       inkscape:connector-curvature="0"
       style="fill:#0000ff;fill-opacity:1;fill-rule:evenodd;stroke:none;stroke-width:1.1pt;marker-start:none;marker-end:none"
       id="path5229-8"
       d="M 51.706015,-0.99739511 C 51.542105,-1.433138 51.074658,-1.6461067 50.662607,-1.4727719 c -0.412051,0.1733333 -0.613441,0.66765663 -0.44953,1.10339949 0.163909,0.43574286 0.631355,0.64871315 1.043406,0.47537832 0.412052,-0.17333484 0.613442,-0.66765816 0.449532,-1.10340102 z" />
  </g>
</svg>
