<?xml version="1.0" encoding="UTF-8" standalone="no"?>
<!-- Created with Inkscape (http://www.inkscape.org/) -->

<svg
   xmlns:dc="http://purl.org/dc/elements/1.1/"
   xmlns:cc="http://creativecommons.org/ns#"
   xmlns:rdf="http://www.w3.org/1999/02/22-rdf-syntax-ns#"
   xmlns:svg="http://www.w3.org/2000/svg"
   xmlns="http://www.w3.org/2000/svg"
   xmlns:xlink="http://www.w3.org/1999/xlink"
   xmlns:sodipodi="http://sodipodi.sourceforge.net/DTD/sodipodi-0.dtd"
   xmlns:inkscape="http://www.inkscape.org/namespaces/inkscape"
   height="24"
   id="svg3397"
   inkscape:output_extension="org.inkscape.output.svg.inkscape"
   inkscape:version="0.48.3.1 r9886"
   sodipodi:docname="money.svg"
   sodipodi:version="0.32"
   width="24"
   version="1.1">
  <metadata
     id="metadata3">
    <rdf:RDF>
      <cc:Work
         rdf:about="">
        <dc:title />
        <dc:description />
        <dc:subject>
          <rdf:Bag>
            <rdf:li>unsorted</rdf:li>
          </rdf:Bag>
        </dc:subject>
        <dc:publisher>
          <cc:Agent
             rdf:about="http://www.openclipart.org/">
            <dc:title>Open Clip Art Library, Source: GNOME-Colors, Source: GNOME-Colors, Source: GNOME-Colors, Source: GNOME-Colors, Source: GNOME-Colors</dc:title>
          </cc:Agent>
        </dc:publisher>
        <dc:creator>
          <cc:Agent>
            <dc:title />
          </cc:Agent>
        </dc:creator>
        <dc:rights>
          <cc:Agent>
            <dc:title />
          </cc:Agent>
        </dc:rights>
        <dc:date />
        <dc:format>image/svg+xml</dc:format>
        <dc:type
           rdf:resource="http://purl.org/dc/dcmitype/StillImage" />
        <cc:license
           rdf:resource="http://creativecommons.org/licenses/GPL/2.0/" />
        <dc:language>en</dc:language>
      </cc:Work>
    </rdf:RDF>
  </metadata>
  <defs
     id="defs3399">
    <radialGradient
       inkscape:collect="always"
       xlink:href="#linearGradient2300-6"
       id="radialGradient3131-7"
       gradientUnits="userSpaceOnUse"
       gradientTransform="matrix(1.113818,0,0,0.539348,-2.124098,18.94132)"
       cx="17.984474"
       cy="40.604275"
       fx="17.984474"
       fy="40.604275"
       r="21.030567" />
    <linearGradient
       id="linearGradient2300-6"
       inkscape:collect="always">
      <stop
         id="stop2302-0"
         offset="0"
         style="stop-color:#555753;stop-opacity:1;" />
      <stop
         id="stop2304-2"
         offset="1"
         style="stop-color:#555753;stop-opacity:0;" />
    </linearGradient>
    <radialGradient
       inkscape:collect="always"
       xlink:href="#linearGradient2649-9"
       id="radialGradient3133-7"
       gradientUnits="userSpaceOnUse"
       gradientTransform="matrix(3.323547,0,0,2.772052,-55.795639,-48.866195)"
       cx="24.013132"
       cy="31.643599"
       fx="24.013132"
       fy="31.643599"
       r="14.986866" />
    <linearGradient
       id="linearGradient2649-9"
       inkscape:collect="always">
      <stop
         id="stop2651-6"
         offset="0"
         style="stop-color:#d3d7cf;stop-opacity:1;" />
      <stop
         id="stop2653-7"
         offset="1"
         style="stop-color:#d3d7cf;stop-opacity:0;" />
    </linearGradient>
    <radialGradient
       inkscape:collect="always"
       xlink:href="#linearGradient2623-3"
       id="radialGradient3135-0"
       gradientUnits="userSpaceOnUse"
       gradientTransform="matrix(2.94027,0,0,2.433326,-47.536589,-23.366555)"
       cx="24.5"
       cy="18.592903"
       fx="24.5"
       fy="18.592903"
       r="14.5" />
    <linearGradient
       id="linearGradient2623-3"
       inkscape:collect="always">
      <stop
         id="stop2625-7"
         offset="0"
         style="stop-color:#babdb6;stop-opacity:1;" />
      <stop
         id="stop2627-0"
         offset="1"
         style="stop-color:#babdb6;stop-opacity:0;" />
    </linearGradient>
    <linearGradient
       inkscape:collect="always"
       xlink:href="#linearGradient2632-0"
       id="linearGradient3137-4"
       gradientUnits="userSpaceOnUse"
       gradientTransform="translate(1.9731731e-6,0.99998521)"
       x1="24.612919"
       y1="20.159996"
       x2="29.182333"
       y2="12.24554" />
    <linearGradient
       id="linearGradient2632-0"
       inkscape:collect="always">
      <stop
         id="stop2635-8"
         offset="0"
         style="stop-color:#204a87;stop-opacity:1;" />
      <stop
         id="stop2637-2"
         offset="1"
         style="stop-color:#204a87;stop-opacity:0;" />
    </linearGradient>
    <linearGradient
       inkscape:collect="always"
       xlink:href="#linearGradient2707-5"
       id="linearGradient3139-2"
       gradientUnits="userSpaceOnUse"
       gradientTransform="matrix(1,0,0,0.833333,9.7317314e-7,7.4999852)"
       x1="18"
       y1="39"
       x2="18"
       y2="45.780262" />
    <linearGradient
       id="linearGradient2707-5"
       inkscape:collect="always">
      <stop
         id="stop2709-6"
         offset="0"
         style="stop-color:#eeeeec;stop-opacity:1;" />
      <stop
         id="stop2711-4"
         offset="1"
         style="stop-color:#eeeeec;stop-opacity:0;" />
    </linearGradient>
  </defs>
  <sodipodi:namedview
     bordercolor="#666666"
     borderopacity="1.0"
     id="base"
     inkscape:current-layer="layer1"
     inkscape:cx="10.509668"
     inkscape:cy="23.899072"
     inkscape:document-units="px"
     inkscape:grid-bbox="true"
     inkscape:pageopacity="0.0"
     inkscape:pageshadow="2"
     inkscape:window-height="845"
     inkscape:window-width="1600"
     inkscape:window-x="-2"
     inkscape:window-y="-3"
     inkscape:zoom="3.5"
     pagecolor="#ffffff"
     showgrid="true"
     inkscape:snap-global="false"
     inkscape:window-maximized="1" />
  <g
     id="layer1"
     inkscape:groupmode="layer"
     inkscape:label="Layer 1"
     transform="translate(0,-24)">
    <g
       transform="matrix(0.49999958,0,0,0.52030728,-1.9718438e-5,23.02525)"
       id="g3066">
      <path
         transform="matrix(1.141197,0,0,0.834666,2.702705,4.9313782)"
         style="opacity:0.5;fill:url(#radialGradient3131-7);fill-opacity:1;fill-rule:evenodd;stroke:none"
         sodipodi:type="arc"
         sodipodi:ry="10.183721"
         sodipodi:rx="21.030567"
         sodipodi:cy="41.416107"
         sodipodi:cx="18.66226"
         id="path2290"
         d="m 39.692827,41.416107 c 0,5.624314 -9.415705,10.183721 -21.030567,10.183721 -11.6148615,0 -21.0305671,-4.559407 -21.0305671,-10.183721 0,-5.624313 9.4157056,-10.18372 21.0305671,-10.18372 11.614862,0 21.030567,4.559407 21.030567,10.18372 z" />
      <path
         transform="matrix(0.790399,0,0,1.147562,20.585601,17.320405)"
         style="fill:#edd400;fill-opacity:1;fill-rule:evenodd;stroke:#786100;stroke-width:1.04999924;stroke-miterlimit:4;stroke-opacity:1;stroke-dasharray:none"
         sodipodi:type="arc"
         sodipodi:ry="2.1770399"
         sodipodi:rx="6.330162"
         sodipodi:cy="18.894651"
         sodipodi:cx="26.492901"
         id="path2773"
         d="m 32.823063,18.894651 c 0,1.202346 -2.83411,2.17704 -6.330162,2.17704 -3.496052,0 -6.330162,-0.974694 -6.330162,-2.17704 0,-1.202346 2.83411,-2.177039 6.330162,-2.177039 3.496052,0 6.330162,0.974693 6.330162,2.177039 z" />
      <path
         transform="matrix(0.632511,0,0,0.687532,24.766131,26.012525)"
         style="opacity:0.6;fill:none;stroke:none"
         sodipodi:type="arc"
         sodipodi:ry="2.1770399"
         sodipodi:rx="6.330162"
         sodipodi:cy="18.894651"
         sodipodi:cx="26.492901"
         id="path2775"
         d="m 32.823063,18.894651 c 0,1.202346 -2.83411,2.17704 -6.330162,2.17704 -3.496052,0 -6.330162,-0.974694 -6.330162,-2.17704 0,-1.202346 2.83411,-2.177039 6.330162,-2.177039 3.496052,0 6.330162,0.974693 6.330162,2.177039 z" />
      <path
         transform="matrix(0.790399,0,0,1.147562,20.595241,15.326835)"
         style="fill:#edd400;fill-opacity:1;fill-rule:evenodd;stroke:#8c7200;stroke-width:1.04999924;stroke-miterlimit:4;stroke-opacity:1;stroke-dasharray:none"
         sodipodi:type="arc"
         sodipodi:ry="2.1770399"
         sodipodi:rx="6.330162"
         sodipodi:cy="18.894651"
         sodipodi:cx="26.492901"
         id="path2777"
         d="m 32.823063,18.894651 c 0,1.202346 -2.83411,2.17704 -6.330162,2.17704 -3.496052,0 -6.330162,-0.974694 -6.330162,-2.17704 0,-1.202346 2.83411,-2.177039 6.330162,-2.177039 3.496052,0 6.330162,0.974693 6.330162,2.177039 z" />
      <path
         transform="matrix(0.632511,0,0,0.687532,24.775771,24.018955)"
         style="opacity:0.6;fill:none;stroke:none"
         sodipodi:type="arc"
         sodipodi:ry="2.1770399"
         sodipodi:rx="6.330162"
         sodipodi:cy="18.894651"
         sodipodi:cx="26.492901"
         id="path2779"
         d="m 32.823063,18.894651 c 0,1.202346 -2.83411,2.17704 -6.330162,2.17704 -3.496052,0 -6.330162,-0.974694 -6.330162,-2.17704 0,-1.202346 2.83411,-2.177039 6.330162,-2.177039 3.496052,0 6.330162,0.974693 6.330162,2.177039 z" />
      <rect
         y="2.5016134"
         x="6.4726911"
         width="35.041153"
         style="fill:#eeeeec;fill-opacity:1;fill-rule:evenodd;stroke:#555753;stroke-width:1.00000036;stroke-miterlimit:4;stroke-opacity:1;stroke-dasharray:none"
         ry="2.0000021"
         rx="2.0000002"
         id="rect1354"
         height="34.99564" />
      <path
         transform="matrix(0.790399,0,0,1.147562,20.595241,13.326845)"
         style="fill:#edd400;fill-opacity:1;fill-rule:evenodd;stroke:#8c7200;stroke-width:1.04999924;stroke-miterlimit:4;stroke-opacity:1;stroke-dasharray:none"
         sodipodi:type="arc"
         sodipodi:ry="2.1770399"
         sodipodi:rx="6.330162"
         sodipodi:cy="18.894651"
         sodipodi:cx="26.492901"
         id="path2781"
         d="m 32.823063,18.894651 c 0,1.202346 -2.83411,2.17704 -6.330162,2.17704 -3.496052,0 -6.330162,-0.974694 -6.330162,-2.17704 0,-1.202346 2.83411,-2.177039 6.330162,-2.177039 3.496052,0 6.330162,0.974693 6.330162,2.177039 z" />
      <rect
         y="5.9999852"
         x="9.026269"
         width="29.973732"
         style="fill:url(#radialGradient3133-7);fill-opacity:1;fill-rule:evenodd;stroke:none"
         ry="1.6250001"
         rx="1.6250001"
         id="rect2229"
         height="25" />
      <path
         transform="matrix(0.632511,0,0,0.687532,24.775771,22.018955)"
         style="opacity:0.6;fill:none;stroke:none"
         sodipodi:type="arc"
         sodipodi:ry="2.1770399"
         sodipodi:rx="6.330162"
         sodipodi:cy="18.894651"
         sodipodi:cx="26.492901"
         id="path2783"
         d="m 32.823063,18.894651 c 0,1.202346 -2.83411,2.17704 -6.330162,2.17704 -3.496052,0 -6.330162,-0.974694 -6.330162,-2.17704 0,-1.202346 2.83411,-2.177039 6.330162,-2.177039 3.496052,0 6.330162,0.974693 6.330162,2.177039 z" />
      <path
         style="fill:url(#radialGradient3135-0);fill-opacity:1;fill-rule:evenodd;stroke:none"
         id="rect2281"
         d="m 14.031252,5.9999852 0,4 -4.03125,0 0,0.9999998 4.03125,0 0,4 -4.03125,0 0,1 4.03125,0 0,4 -4.03125,0 0,1 4.03125,0 0,4 -4.03125,0 0,1 4.03125,0 0,4 1,0 0,-4 4,0 0,4 1,0 0,-4 4,0 0,4 1,0 0,-4 4,0 0,4 1,0 0,-4 4,0 0,4 1,0 0,-4 3.96875,0 0,-1 -3.96875,0 0,-4 3.96875,0 0,-1 -3.96875,0 0,-4 3.96875,0 0,-1 -3.96875,0 0,-4 3.96875,0 0,-0.9999998 -3.96875,0 0,-4 -1,0 0,4 -4,0 0,-4 -1,0 0,4 -4,0 0,-4 -1,0 0,4 -4,0 0,-4 -1,0 0,4 -4,0 0,-4 -1,0 z m 1,4.9999998 4,0 0,4 -4,0 0,-4 z m 5,0 4,0 0,4 -4,0 0,-4 z m 5,0 4,0 0,4 -4,0 0,-4 z m 5,0 4,0 0,4 -4,0 0,-4 z m -15,5 4,0 0,4 -4,0 0,-4 z m 5,0 4,0 0,4 -4,0 0,-4 z m 5,0 4,0 0,4 -4,0 0,-4 z m 5,0 4,0 0,4 -4,0 0,-4 z m -15,5 4,0 0,4 -4,0 0,-4 z m 5,0 4,0 0,4 -4,0 0,-4 z m 5,0 4,0 0,4 -4,0 0,-4 z m 5,0 4,0 0,4 -4,0 0,-4 z"
         inkscape:connector-curvature="0" />
      <path
         transform="matrix(0.790399,0,0,1.147562,20.582671,11.321915)"
         style="fill:#edd400;fill-opacity:1;fill-rule:evenodd;stroke:#8c7200;stroke-width:1.04999924;stroke-miterlimit:4;stroke-opacity:1;stroke-dasharray:none"
         sodipodi:type="arc"
         sodipodi:ry="2.1770399"
         sodipodi:rx="6.330162"
         sodipodi:cy="18.894651"
         sodipodi:cx="26.492901"
         id="path2785"
         d="m 32.823063,18.894651 c 0,1.202346 -2.83411,2.17704 -6.330162,2.17704 -3.496052,0 -6.330162,-0.974694 -6.330162,-2.17704 0,-1.202346 2.83411,-2.177039 6.330162,-2.177039 3.496052,0 6.330162,0.974693 6.330162,2.177039 z" />
      <path
         style="fill:url(#linearGradient3137-4);fill-opacity:1;fill-rule:evenodd;stroke:none"
         sodipodi:nodetypes="ccccccccc"
         id="rect2293"
         d="m 28.531252,12.999985 -4.883016,8.817147 -8.609782,-4.797282 -6.007202,9.480135 0.875,0.5 5.412175,-8.726766 8.70144,4.78125 5.386385,-9.554484 -0.875,-0.5 z"
         inkscape:connector-curvature="0" />
      <rect
         y="-39"
         x="29.999985"
         width="1"
         transform="matrix(0,1,-1,0,0,0)"
         style="fill:#888a85;fill-opacity:1;fill-rule:evenodd;stroke:none"
         id="rect2600"
         height="30" />
      <path
         transform="matrix(0.632511,0,0,0.687532,24.775771,20.012515)"
         style="opacity:0.6;fill:none;stroke:none"
         sodipodi:type="arc"
         sodipodi:ry="2.1770399"
         sodipodi:rx="6.330162"
         sodipodi:cy="18.894651"
         sodipodi:cx="26.492901"
         id="path2787"
         d="m 32.823063,18.894651 c 0,1.202346 -2.83411,2.17704 -6.330162,2.17704 -3.496052,0 -6.330162,-0.974694 -6.330162,-2.17704 0,-1.202346 2.83411,-2.177039 6.330162,-2.177039 3.496052,0 6.330162,0.974693 6.330162,2.177039 z" />
      <rect
         y="5.9999852"
         x="9.026269"
         width="1"
         style="fill:#888a85;fill-opacity:1;fill-rule:evenodd;stroke:none"
         id="rect2231"
         height="25" />
      <path
         style="fill:#4e9a06;fill-opacity:1;fill-rule:evenodd;stroke:#2e5c02;stroke-width:0.99999976;stroke-miterlimit:4;stroke-opacity:1"
         id="path2321"
         d="m 1.499841,34.489065 24.000325,0 0,6.025232 -24.000325,0 0,-6.025232 z"
         inkscape:connector-curvature="0" />
      <path
         style="fill:#59af05;fill-opacity:1;fill-rule:evenodd;stroke:#2e5c02;stroke-width:1;stroke-miterlimit:4;stroke-opacity:1"
         sodipodi:nodetypes="ccccc"
         id="path2323"
         d="m 4.325883,28.50068 20.27169,0 0.902432,6.009461 -24.000006,0 2.825884,-6.009461 z"
         inkscape:connector-curvature="0" />
      <rect
         y="38.036663"
         x="2.0001378"
         width="23"
         style="fill:#2e5c02;fill-opacity:1;fill-rule:evenodd;stroke:none"
         id="rect2325"
         height="1" />
      <rect
         y="36.036663"
         x="2.0001378"
         width="23"
         style="fill:#2e5c02;fill-opacity:1;fill-rule:evenodd;stroke:none"
         id="rect2327"
         height="1" />
      <path
         style="opacity:0.25;fill:none;stroke:#ffffff;stroke-width:1;stroke-miterlimit:4;stroke-opacity:1"
         sodipodi:nodetypes="ccccc"
         id="path2329"
         d="m 4.937599,29.552134 -1.96875,3.9375 21.34375,0 -0.59375,-3.9375 -18.78125,0 z"
         inkscape:connector-curvature="0" />
      <rect
         y="34.474033"
         x="11.53135"
         width="4.9373136"
         style="fill:#eeeeec;fill-opacity:1;fill-rule:evenodd;stroke:#555753;stroke-width:1.00000012;stroke-miterlimit:4;stroke-opacity:1;stroke-dasharray:none"
         id="rect2341"
         height="6.1093535" />
      <path
         transform="matrix(0.707107,0,0,0.413916,5.124997,31.680795)"
         style="fill:#2e5c02;fill-opacity:1;fill-rule:evenodd;stroke:none"
         sodipodi:type="arc"
         sodipodi:ry="3.6239223"
         sodipodi:rx="7.0710678"
         sodipodi:cy="-0.43681452"
         sodipodi:cx="12.551146"
         id="path2746"
         d="m 19.622213,-0.43681452 c 0,2.00143702 -3.165825,3.62392232 -7.071067,3.62392232 -3.9052434,0 -7.0710683,-1.6224853 -7.0710683,-3.62392232 0,-2.00143708 3.1658249,-3.62392238 7.0710683,-3.62392238 3.905242,0 7.071067,1.6224853 7.071067,3.62392238 z" />
      <path
         style="fill:#d3d7cf;fill-opacity:1;fill-rule:evenodd;stroke:#555753;stroke-width:1.00000012;stroke-miterlimit:4;stroke-opacity:1;stroke-dasharray:none"
         sodipodi:nodetypes="ccccccc"
         id="path2715"
         d="m 12.500001,28.495693 -1,5.637161 0,6.37143 5,0 0,-6.425371 -1.09375,-5.58322 -2.90625,0 z"
         inkscape:connector-curvature="0" />
      <path
         style="fill:#4e9a06;fill-opacity:1;fill-rule:evenodd;stroke:#2e5c02;stroke-width:0.99999958;stroke-miterlimit:4;stroke-opacity:1"
         id="rect2271"
         d="m 5.491464,39.471053 24.008514,0 0,6.039078 -24.008514,0 0,-6.039078 z"
         inkscape:connector-curvature="0" />
      <path
         style="fill:#57ae06;fill-opacity:1;fill-rule:evenodd;stroke:#2e5c02;stroke-width:0.99999964;stroke-miterlimit:4;stroke-opacity:1"
         sodipodi:nodetypes="ccccc"
         id="path3816"
         d="m 7.450819,33.505006 20.208675,0 1.839885,5.993972 -23.999394,0 1.950834,-5.993972 z"
         inkscape:connector-curvature="0" />
      <path
         transform="matrix(0.790399,0,0,1.147562,15.575961,20.313975)"
         style="fill:#ecd300;fill-opacity:1;fill-rule:evenodd;stroke:#786100;stroke-width:1.04999924;stroke-miterlimit:4;stroke-opacity:1;stroke-dasharray:none"
         sodipodi:type="arc"
         sodipodi:ry="2.1770399"
         sodipodi:rx="6.330162"
         sodipodi:cy="18.894651"
         sodipodi:cx="26.492901"
         id="path2413"
         d="m 32.823063,18.894651 c 0,1.202346 -2.83411,2.17704 -6.330162,2.17704 -3.496052,0 -6.330162,-0.974694 -6.330162,-2.17704 0,-1.202346 2.83411,-2.177039 6.330162,-2.177039 3.496052,0 6.330162,0.974693 6.330162,2.177039 z" />
      <path
         transform="matrix(0.790399,0,0,1.147562,20.595241,9.3204212)"
         style="fill:#edd400;fill-opacity:1;fill-rule:evenodd;stroke:#8c7200;stroke-width:1.04999924;stroke-miterlimit:4;stroke-opacity:1;stroke-dasharray:none"
         sodipodi:type="arc"
         sodipodi:ry="2.1770399"
         sodipodi:rx="6.330162"
         sodipodi:cy="18.894651"
         sodipodi:cx="26.492901"
         id="path2789"
         d="m 32.823063,18.894651 c 0,1.202346 -2.83411,2.17704 -6.330162,2.17704 -3.496052,0 -6.330162,-0.974694 -6.330162,-2.17704 0,-1.202346 2.83411,-2.177039 6.330162,-2.177039 3.496052,0 6.330162,0.974693 6.330162,2.177039 z" />
      <rect
         y="42.999985"
         x="6.0000005"
         width="23"
         style="fill:#2e5c02;fill-opacity:1;fill-rule:evenodd;stroke:none"
         id="rect2441"
         height="1" />
      <path
         transform="matrix(0.632511,0,0,0.687532,19.756491,29.006095)"
         style="opacity:0.6;fill:none;stroke:none"
         sodipodi:type="arc"
         sodipodi:ry="2.1770399"
         sodipodi:rx="6.330162"
         sodipodi:cy="18.894651"
         sodipodi:cx="26.492901"
         id="path2415"
         d="m 32.823063,18.894651 c 0,1.202346 -2.83411,2.17704 -6.330162,2.17704 -3.496052,0 -6.330162,-0.974694 -6.330162,-2.17704 0,-1.202346 2.83411,-2.177039 6.330162,-2.177039 3.496052,0 6.330162,0.974693 6.330162,2.177039 z" />
      <rect
         y="40.999985"
         x="6.0000005"
         width="23.000002"
         style="fill:#2e5c02;fill-opacity:1;fill-rule:evenodd;stroke:none"
         id="rect2443"
         height="1" />
      <path
         transform="matrix(0.790399,0,0,1.147562,15.585601,18.320405)"
         style="fill:#ecd300;fill-opacity:1;fill-rule:evenodd;stroke:#8c7200;stroke-width:1.04999924;stroke-miterlimit:4;stroke-opacity:1;stroke-dasharray:none"
         sodipodi:type="arc"
         sodipodi:ry="2.1770399"
         sodipodi:rx="6.330162"
         sodipodi:cy="18.894651"
         sodipodi:cx="26.492901"
         id="path2417"
         d="m 32.823063,18.894651 c 0,1.202346 -2.83411,2.17704 -6.330162,2.17704 -3.496052,0 -6.330162,-0.974694 -6.330162,-2.17704 0,-1.202346 2.83411,-2.177039 6.330162,-2.177039 3.496052,0 6.330162,0.974693 6.330162,2.177039 z" />
      <path
         transform="matrix(0.632511,0,0,0.687532,24.775771,18.012525)"
         style="opacity:0.6;fill:none;stroke:none"
         sodipodi:type="arc"
         sodipodi:ry="2.1770399"
         sodipodi:rx="6.330162"
         sodipodi:cy="18.894651"
         sodipodi:cx="26.492901"
         id="path2791"
         d="m 32.823063,18.894651 c 0,1.202346 -2.83411,2.17704 -6.330162,2.17704 -3.496052,0 -6.330162,-0.974694 -6.330162,-2.17704 0,-1.202346 2.83411,-2.177039 6.330162,-2.177039 3.496052,0 6.330162,0.974693 6.330162,2.177039 z" />
      <path
         transform="matrix(0.632511,0,0,0.687532,19.766131,27.012525)"
         style="opacity:0.6;fill:none;stroke:none"
         sodipodi:type="arc"
         sodipodi:ry="2.1770399"
         sodipodi:rx="6.330162"
         sodipodi:cy="18.894651"
         sodipodi:cx="26.492901"
         id="path2419"
         d="m 32.823063,18.894651 c 0,1.202346 -2.83411,2.17704 -6.330162,2.17704 -3.496052,0 -6.330162,-0.974694 -6.330162,-2.17704 0,-1.202346 2.83411,-2.177039 6.330162,-2.177039 3.496052,0 6.330162,0.974693 6.330162,2.177039 z" />
      <path
         transform="matrix(0.790399,0,0,1.147562,15.585601,16.320415)"
         style="fill:#ecd300;fill-opacity:1;fill-rule:evenodd;stroke:#8c7200;stroke-width:1.04999924;stroke-miterlimit:4;stroke-opacity:1;stroke-dasharray:none"
         sodipodi:type="arc"
         sodipodi:ry="2.1770399"
         sodipodi:rx="6.330162"
         sodipodi:cy="18.894651"
         sodipodi:cx="26.492901"
         id="path2421"
         d="m 32.823063,18.894651 c 0,1.202346 -2.83411,2.17704 -6.330162,2.17704 -3.496052,0 -6.330162,-0.974694 -6.330162,-2.17704 0,-1.202346 2.83411,-2.177039 6.330162,-2.177039 3.496052,0 6.330162,0.974693 6.330162,2.177039 z" />
      <path
         transform="matrix(0.790399,0,0,1.147562,20.595241,7.3253372)"
         style="fill:#edd400;fill-opacity:1;fill-rule:evenodd;stroke:#8c7200;stroke-width:1.04999924;stroke-miterlimit:4;stroke-opacity:1;stroke-dasharray:none"
         sodipodi:type="arc"
         sodipodi:ry="2.1770399"
         sodipodi:rx="6.330162"
         sodipodi:cy="18.894651"
         sodipodi:cx="26.492901"
         id="path2797"
         d="m 32.823063,18.894651 c 0,1.202346 -2.83411,2.17704 -6.330162,2.17704 -3.496052,0 -6.330162,-0.974694 -6.330162,-2.17704 0,-1.202346 2.83411,-2.177039 6.330162,-2.177039 3.496052,0 6.330162,0.974693 6.330162,2.177039 z" />
      <path
         style="opacity:0.25;fill:none;stroke:#ffffff;stroke-width:1;stroke-miterlimit:4;stroke-opacity:1"
         id="path2269"
         d="m 8.218751,34.531235 -1.28125,3.9375 21.15625,0 -1.21875,-3.9375 -18.65625,0 z"
         inkscape:connector-curvature="0" />
      <path
         transform="matrix(0.632511,0,0,0.687532,19.766131,25.012525)"
         style="opacity:0.6;fill:none;stroke:none"
         sodipodi:type="arc"
         sodipodi:ry="2.1770399"
         sodipodi:rx="6.330162"
         sodipodi:cy="18.894651"
         sodipodi:cx="26.492901"
         id="path2423"
         d="m 32.823063,18.894651 c 0,1.202346 -2.83411,2.17704 -6.330162,2.17704 -3.496052,0 -6.330162,-0.974694 -6.330162,-2.17704 0,-1.202346 2.83411,-2.177039 6.330162,-2.177039 3.496052,0 6.330162,0.974693 6.330162,2.177039 z" />
      <path
         transform="matrix(0.790399,0,0,1.147562,15.573031,14.315485)"
         style="fill:#ecd300;fill-opacity:1;fill-rule:evenodd;stroke:#8c7200;stroke-width:1.04999924;stroke-miterlimit:4;stroke-opacity:1;stroke-dasharray:none"
         sodipodi:type="arc"
         sodipodi:ry="2.1770399"
         sodipodi:rx="6.330162"
         sodipodi:cy="18.894651"
         sodipodi:cx="26.492901"
         id="path2425"
         d="m 32.823063,18.894651 c 0,1.202346 -2.83411,2.17704 -6.330162,2.17704 -3.496052,0 -6.330162,-0.974694 -6.330162,-2.17704 0,-1.202346 2.83411,-2.177039 6.330162,-2.177039 3.496052,0 6.330162,0.974693 6.330162,2.177039 z" />
      <path
         transform="matrix(0.632511,0,0,0.687532,19.766131,23.006085)"
         style="opacity:0.6;fill:none;stroke:none"
         sodipodi:type="arc"
         sodipodi:ry="2.1770399"
         sodipodi:rx="6.330162"
         sodipodi:cy="18.894651"
         sodipodi:cx="26.492901"
         id="path2427"
         d="m 32.823063,18.894651 c 0,1.202346 -2.83411,2.17704 -6.330162,2.17704 -3.496052,0 -6.330162,-0.974694 -6.330162,-2.17704 0,-1.202346 2.83411,-2.177039 6.330162,-2.177039 3.496052,0 6.330162,0.974693 6.330162,2.177039 z" />
      <path
         transform="matrix(0.790399,0,0,1.147562,20.582671,5.3204072)"
         style="fill:#edd400;fill-opacity:1;fill-rule:evenodd;stroke:#8c7200;stroke-width:1.04999924;stroke-miterlimit:4;stroke-opacity:1;stroke-dasharray:none"
         sodipodi:type="arc"
         sodipodi:ry="2.1770399"
         sodipodi:rx="6.330162"
         sodipodi:cy="18.894651"
         sodipodi:cx="26.492901"
         id="path2799"
         d="m 32.823063,18.894651 c 0,1.202346 -2.83411,2.17704 -6.330162,2.17704 -3.496052,0 -6.330162,-0.974694 -6.330162,-2.17704 0,-1.202346 2.83411,-2.177039 6.330162,-2.177039 3.496052,0 6.330162,0.974693 6.330162,2.177039 z" />
      <path
         transform="matrix(0.790399,0,0,1.147562,15.585601,12.313995)"
         style="fill:#ecd300;fill-opacity:1;fill-rule:evenodd;stroke:#8c7200;stroke-width:1.04999924;stroke-miterlimit:4;stroke-opacity:1;stroke-dasharray:none"
         sodipodi:type="arc"
         sodipodi:ry="2.1770399"
         sodipodi:rx="6.330162"
         sodipodi:cy="18.894651"
         sodipodi:cx="26.492901"
         id="path2429"
         d="m 32.823063,18.894651 c 0,1.202346 -2.83411,2.17704 -6.330162,2.17704 -3.496052,0 -6.330162,-0.974694 -6.330162,-2.17704 0,-1.202346 2.83411,-2.177039 6.330162,-2.177039 3.496052,0 6.330162,0.974693 6.330162,2.177039 z" />
      <path
         transform="matrix(0.632511,0,0,0.687532,19.766131,21.006095)"
         style="opacity:0.6;fill:none;stroke:none"
         sodipodi:type="arc"
         sodipodi:ry="2.1770399"
         sodipodi:rx="6.330162"
         sodipodi:cy="18.894651"
         sodipodi:cx="26.492901"
         id="path2431"
         d="m 32.823063,18.894651 c 0,1.202346 -2.83411,2.17704 -6.330162,2.17704 -3.496052,0 -6.330162,-0.974694 -6.330162,-2.17704 0,-1.202346 2.83411,-2.177039 6.330162,-2.177039 3.496052,0 6.330162,0.974693 6.330162,2.177039 z" />
      <path
         transform="matrix(0.141421,0,0,0.137972,8.193789,33.544785)"
         style="fill:#2e5c02;fill-opacity:1;fill-rule:evenodd;stroke:none"
         sodipodi:type="arc"
         sodipodi:ry="3.6239223"
         sodipodi:rx="7.0710678"
         sodipodi:cy="-0.43681452"
         sodipodi:cx="12.551146"
         id="path2267"
         d="m 19.622213,-0.43681452 c 0,2.00143702 -3.165825,3.62392232 -7.071067,3.62392232 -3.9052434,0 -7.0710683,-1.6224853 -7.0710683,-3.62392232 0,-2.00143708 3.1658249,-3.62392238 7.0710683,-3.62392238 3.905242,0 7.071067,1.6224853 7.071067,3.62392238 z" />
      <path
         transform="matrix(0.141421,0,0,0.137972,23.193791,33.544785)"
         style="fill:#2e5c02;fill-opacity:1;fill-rule:evenodd;stroke:none"
         sodipodi:type="arc"
         sodipodi:ry="3.6239223"
         sodipodi:rx="7.0710678"
         sodipodi:cy="-0.43681452"
         sodipodi:cx="12.551146"
         id="path3843"
         d="m 19.622213,-0.43681452 c 0,2.00143702 -3.165825,3.62392232 -7.071067,3.62392232 -3.9052434,0 -7.0710683,-1.6224853 -7.0710683,-3.62392232 0,-2.00143708 3.1658249,-3.62392238 7.0710683,-3.62392238 3.905242,0 7.071067,1.6224853 7.071067,3.62392238 z" />
      <path
         transform="matrix(0.707106,0,0,0.413916,9.125007,36.680795)"
         style="fill:#2e5c02;fill-opacity:1;fill-rule:evenodd;stroke:none"
         sodipodi:type="arc"
         sodipodi:ry="3.6239223"
         sodipodi:rx="7.0710678"
         sodipodi:cy="-0.43681452"
         sodipodi:cx="12.551146"
         id="path3837"
         d="m 19.622213,-0.43681452 c 0,2.00143702 -3.165825,3.62392232 -7.071067,3.62392232 -3.9052434,0 -7.0710683,-1.6224853 -7.0710683,-3.62392232 0,-2.00143708 3.1658249,-3.62392238 7.0710683,-3.62392238 3.905242,0 7.071067,1.6224853 7.071067,3.62392238 z" />
      <path
         transform="matrix(0.214339,0,0,0.137972,6.794192,37.544785)"
         style="fill:#2e5c02;fill-opacity:1;fill-rule:evenodd;stroke:none"
         sodipodi:type="arc"
         sodipodi:ry="3.6239223"
         sodipodi:rx="7.0710678"
         sodipodi:cy="-0.43681452"
         sodipodi:cx="12.551146"
         id="path3839"
         d="m 19.622213,-0.43681452 c 0,2.00143702 -3.165825,3.62392232 -7.071067,3.62392232 -3.9052434,0 -7.0710683,-1.6224853 -7.0710683,-3.62392232 0,-2.00143708 3.1658249,-3.62392238 7.0710683,-3.62392238 3.905242,0 7.071067,1.6224853 7.071067,3.62392238 z" />
      <path
         transform="matrix(0.212132,0,0,0.137972,22.837501,37.560255)"
         style="fill:#2e5c02;fill-opacity:1;fill-rule:evenodd;stroke:none"
         sodipodi:type="arc"
         sodipodi:ry="3.6239223"
         sodipodi:rx="7.0710678"
         sodipodi:cy="-0.43681452"
         sodipodi:cx="12.551146"
         id="path3841"
         d="m 19.622213,-0.43681452 c 0,2.00143702 -3.165825,3.62392232 -7.071067,3.62392232 -3.9052434,0 -7.0710683,-1.6224853 -7.0710683,-3.62392232 0,-2.00143708 3.1658249,-3.62392238 7.0710683,-3.62392238 3.905242,0 7.071067,1.6224853 7.071067,3.62392238 z" />
      <path
         style="fill:#d3d7cf;fill-opacity:1;fill-rule:evenodd;stroke:#555753;stroke-width:1.00000012;stroke-miterlimit:4;stroke-opacity:1;stroke-dasharray:none"
         sodipodi:nodetypes="ccccccc"
         id="rect1372"
         d="m 16.500001,33.521293 -1,5.625214 0,6.357927 5,0 0,-6.411754 -1.09375,-5.571387 -2.90625,0 z"
         inkscape:connector-curvature="0" />
      <rect
         y="39.999985"
         x="16"
         width="4"
         style="fill:#888a85;fill-opacity:1;fill-rule:evenodd;stroke:none"
         id="rect2721"
         height="5" />
      <rect
         y="39.999985"
         x="16"
         width="4"
         style="fill:url(#linearGradient3139-2);fill-opacity:1;fill-rule:evenodd;stroke:none"
         id="rect2673"
         height="5" />
      <path
         transform="matrix(0.212132,0,0,0.137972,21.837501,35.560255)"
         style="fill:#2e5c02;fill-opacity:1;fill-rule:evenodd;stroke:none"
         sodipodi:type="arc"
         sodipodi:ry="3.6239223"
         sodipodi:rx="7.0710678"
         sodipodi:cy="-0.43681452"
         sodipodi:cx="12.551146"
         id="path2691"
         d="m 19.622213,-0.43681452 c 0,2.00143702 -3.165825,3.62392232 -7.071067,3.62392232 -3.9052434,0 -7.0710683,-1.6224853 -7.0710683,-3.62392232 0,-2.00143708 3.1658249,-3.62392238 7.0710683,-3.62392238 3.905242,0 7.071067,1.6224853 7.071067,3.62392238 z" />
      <path
         transform="matrix(0.212132,0,0,0.137972,7.837501,35.560255)"
         style="fill:#2e5c02;fill-opacity:1;fill-rule:evenodd;stroke:none"
         sodipodi:type="arc"
         sodipodi:ry="3.6239223"
         sodipodi:rx="7.0710678"
         sodipodi:cy="-0.43681452"
         sodipodi:cx="12.551146"
         id="path2693"
         d="m 19.622213,-0.43681452 c 0,2.00143702 -3.165825,3.62392232 -7.071067,3.62392232 -3.9052434,0 -7.0710683,-1.6224853 -7.0710683,-3.62392232 0,-2.00143708 3.1658249,-3.62392238 7.0710683,-3.62392238 3.905242,0 7.071067,1.6224853 7.071067,3.62392238 z" />
      <path
         style="opacity:0.2;fill:#ffffff;fill-opacity:1;fill-rule:evenodd;stroke:none"
         sodipodi:nodetypes="cccc"
         id="rect2743"
         d="m 9.000002,5.9999852 30,0 c -12.160656,3.9101256 -11.337571,17.9999998 -30,17.9999998 l 0,-17.9999998 z"
         inkscape:connector-curvature="0" />
      <path
         transform="matrix(0.214339,0,0,0.137972,2.794191,32.560255)"
         style="fill:#2e5c02;fill-opacity:1;fill-rule:evenodd;stroke:none"
         sodipodi:type="arc"
         sodipodi:ry="3.6239223"
         sodipodi:rx="7.0710678"
         sodipodi:cy="-0.43681452"
         sodipodi:cx="12.551146"
         id="path2748"
         d="m 19.622213,-0.43681452 c 0,2.00143702 -3.165825,3.62392232 -7.071067,3.62392232 -3.9052434,0 -7.0710683,-1.6224853 -7.0710683,-3.62392232 0,-2.00143708 3.1658249,-3.62392238 7.0710683,-3.62392238 3.905242,0 7.071067,1.6224853 7.071067,3.62392238 z" />
      <path
         transform="matrix(0.212132,0,0,0.137972,19.837501,32.560255)"
         style="fill:#2e5c02;fill-opacity:1;fill-rule:evenodd;stroke:none"
         sodipodi:type="arc"
         sodipodi:ry="3.6239223"
         sodipodi:rx="7.0710678"
         sodipodi:cy="-0.43681452"
         sodipodi:cx="12.551146"
         id="path2750"
         d="m 19.622213,-0.43681452 c 0,2.00143702 -3.165825,3.62392232 -7.071067,3.62392232 -3.9052434,0 -7.0710683,-1.6224853 -7.0710683,-3.62392232 0,-2.00143708 3.1658249,-3.62392238 7.0710683,-3.62392238 3.905242,0 7.071067,1.6224853 7.071067,3.62392238 z" />
      <path
         transform="matrix(0.212132,0,0,0.137972,18.837501,30.560255)"
         style="fill:#2e5c02;fill-opacity:1;fill-rule:evenodd;stroke:none"
         sodipodi:type="arc"
         sodipodi:ry="3.6239223"
         sodipodi:rx="7.0710678"
         sodipodi:cy="-0.43681452"
         sodipodi:cx="12.551146"
         id="path2752"
         d="m 19.622213,-0.43681452 c 0,2.00143702 -3.165825,3.62392232 -7.071067,3.62392232 -3.9052434,0 -7.0710683,-1.6224853 -7.0710683,-3.62392232 0,-2.00143708 3.1658249,-3.62392238 7.0710683,-3.62392238 3.905242,0 7.071067,1.6224853 7.071067,3.62392238 z" />
      <path
         transform="matrix(0.212132,0,0,0.137972,3.837502,30.560255)"
         style="fill:#2e5c02;fill-opacity:1;fill-rule:evenodd;stroke:none"
         sodipodi:type="arc"
         sodipodi:ry="3.6239223"
         sodipodi:rx="7.0710678"
         sodipodi:cy="-0.43681452"
         sodipodi:cx="12.551146"
         id="path2754"
         d="m 19.622213,-0.43681452 c 0,2.00143702 -3.165825,3.62392232 -7.071067,3.62392232 -3.9052434,0 -7.0710683,-1.6224853 -7.0710683,-3.62392232 0,-2.00143708 3.1658249,-3.62392238 7.0710683,-3.62392238 3.905242,0 7.071067,1.6224853 7.071067,3.62392238 z" />
      <path
         transform="matrix(0.790399,0,0,1.147562,20.595241,3.3189132)"
         style="fill:#edd400;fill-opacity:1;fill-rule:evenodd;stroke:#8c7200;stroke-width:1.04999924;stroke-miterlimit:4;stroke-opacity:1;stroke-dasharray:none"
         sodipodi:type="arc"
         sodipodi:ry="2.1770399"
         sodipodi:rx="6.330162"
         sodipodi:cy="18.894651"
         sodipodi:cx="26.492901"
         id="path2801"
         d="m 32.823063,18.894651 c 0,1.202346 -2.83411,2.17704 -6.330162,2.17704 -3.496052,0 -6.330162,-0.974694 -6.330162,-2.17704 0,-1.202346 2.83411,-2.177039 6.330162,-2.177039 3.496052,0 6.330162,0.974693 6.330162,2.177039 z" />
      <path
         transform="matrix(0.790399,0,0,1.147562,20.595241,1.3189133)"
         style="fill:#edd400;fill-opacity:1;fill-rule:evenodd;stroke:#8c7200;stroke-width:1.04999924;stroke-miterlimit:4;stroke-opacity:1;stroke-dasharray:none"
         sodipodi:type="arc"
         sodipodi:ry="2.1770399"
         sodipodi:rx="6.330162"
         sodipodi:cy="18.894651"
         sodipodi:cx="26.492901"
         id="path2809"
         d="m 32.823063,18.894651 c 0,1.202346 -2.83411,2.17704 -6.330162,2.17704 -3.496052,0 -6.330162,-0.974694 -6.330162,-2.17704 0,-1.202346 2.83411,-2.177039 6.330162,-2.177039 3.496052,0 6.330162,0.974693 6.330162,2.177039 z" />
      <path
         transform="matrix(0.790399,0,0,1.147562,20.575961,-0.68450979)"
         style="fill:#fce94f;fill-opacity:1;fill-rule:evenodd;stroke:#8c7200;stroke-width:1.04999924;stroke-miterlimit:4;stroke-opacity:1;stroke-dasharray:none"
         sodipodi:type="arc"
         sodipodi:ry="2.1770399"
         sodipodi:rx="6.330162"
         sodipodi:cy="18.894651"
         sodipodi:cx="26.492901"
         id="path2793"
         d="m 32.823063,18.894651 c 0,1.202346 -2.83411,2.17704 -6.330162,2.17704 -3.496052,0 -6.330162,-0.974694 -6.330162,-2.17704 0,-1.202346 2.83411,-2.177039 6.330162,-2.177039 3.496052,0 6.330162,0.974693 6.330162,2.177039 z" />
      <path
         transform="matrix(0.790399,0,0,1.147562,15.566321,10.313995)"
         style="fill:#fce94f;fill-opacity:1;fill-rule:evenodd;stroke:#8c7200;stroke-width:1.04999924;stroke-miterlimit:4;stroke-opacity:1;stroke-dasharray:none"
         sodipodi:type="arc"
         sodipodi:ry="2.1770399"
         sodipodi:rx="6.330162"
         sodipodi:cy="18.894651"
         sodipodi:cx="26.492901"
         id="path2761"
         d="m 32.823063,18.894651 c 0,1.202346 -2.83411,2.17704 -6.330162,2.17704 -3.496052,0 -6.330162,-0.974694 -6.330162,-2.17704 0,-1.202346 2.83411,-2.177039 6.330162,-2.177039 3.496052,0 6.330162,0.974693 6.330162,2.177039 z" />
      <path
         transform="matrix(0.632511,0,0,0.687532,19.746851,19.006095)"
         style="opacity:0.5;fill:none;stroke:#ffffff;stroke-width:1.51642048;stroke-miterlimit:4;stroke-opacity:1;stroke-dasharray:none"
         sodipodi:type="arc"
         sodipodi:ry="2.1770399"
         sodipodi:rx="6.330162"
         sodipodi:cy="18.894651"
         sodipodi:cx="26.492901"
         id="path2763"
         d="m 32.823063,18.894651 c 0,1.202346 -2.83411,2.17704 -6.330162,2.17704 -3.496052,0 -6.330162,-0.974694 -6.330162,-2.17704 0,-1.202346 2.83411,-2.177039 6.330162,-2.177039 3.496052,0 6.330162,0.974693 6.330162,2.177039 z" />
      <path
         transform="matrix(0.632511,0,0,0.687532,24.748691,8.0060922)"
         style="opacity:0.5;fill:none;stroke:#ffffff;stroke-width:1.51642048;stroke-miterlimit:4;stroke-opacity:1;stroke-dasharray:none"
         sodipodi:type="arc"
         sodipodi:ry="2.1770399"
         sodipodi:rx="6.330162"
         sodipodi:cy="18.894651"
         sodipodi:cx="26.492901"
         id="path2795"
         d="m 32.823063,18.894651 c 0,1.202346 -2.83411,2.17704 -6.330162,2.17704 -3.496052,0 -6.330162,-0.974694 -6.330162,-2.17704 0,-1.202346 2.83411,-2.177039 6.330162,-2.177039 3.496052,0 6.330162,0.974693 6.330162,2.177039 z" />
    </g>
  </g>
</svg>
